<svg width="16" height="16" viewBox="0 0 16 16" fill="none" xmlns="http://www.w3.org/2000/svg">
<path d="M13.1673 15.2886C13.753 15.8744 14.7028 15.8744 15.2886 15.2886C15.8744 14.7028 15.8744 13.7531 15.2886 13.1673L9.98529 7.86397L15.2886 2.56068C15.8744 1.97489 15.8744 1.02515 15.2886 0.439359C14.7028 -0.146428 13.753 -0.146428 13.1673 0.439359L7.86397 5.74265L2.56066 0.43934C1.97488 -0.146446 1.02513 -0.146447 0.439341 0.43934C-0.146446 1.02513 -0.146445 1.97487 0.439341 2.56066L5.74265 7.86397L0.43934 13.1673C-0.146446 13.7531 -0.146447 14.7028 0.43934 15.2886C1.02513 15.8744 1.97487 15.8744 2.56066 15.2886L7.86397 9.98529L13.1673 15.2886Z" fill="#333333"/>
</svg>
