<svg width="100" height="36" viewBox="0 0 100 36" fill="none" xmlns="http://www.w3.org/2000/svg">
<path d="M35.6281 15.9554H39.4521V32.5017H35.6281V15.9554Z" fill="black"/>
<path d="M58.8329 15.9554V32.5017H54.985V25.7177H47.4319V32.5017H43.5841V15.9554H47.4319V22.4794H54.985V15.9554H58.8329Z" fill="black"/>
<path d="M80.4326 29.3815V36.0001H76.8935V32.5017H62.9986V15.9554H66.8226V29.3815H74.2333V15.9554H78.0574V29.3815H80.4326Z" fill="black"/>
<path d="M90.9029 32.7853C89.177 32.7853 87.6173 32.415 86.2238 31.6744C84.8462 30.9337 83.7615 29.9173 82.9698 28.6251C82.1939 27.3172 81.8059 25.8517 81.8059 24.2286C81.8059 22.6054 82.1939 21.1478 82.9698 19.8556C83.7615 18.5477 84.8462 17.5234 86.2238 16.7827C87.6173 16.0421 89.177 15.6718 90.9029 15.6718C92.6289 15.6718 94.1807 16.0421 95.5584 16.7827C96.936 17.5234 98.0206 18.5477 98.8124 19.8556C99.6041 21.1478 100 22.6054 100 24.2286C100 25.8517 99.6041 27.3172 98.8124 28.6251C98.0206 29.9173 96.936 30.9337 95.5584 31.6744C94.1807 32.415 92.6289 32.7853 90.9029 32.7853ZM90.9029 29.5234C91.8847 29.5234 92.7714 29.3027 93.5632 28.8615C94.3549 28.4045 94.9725 27.7742 95.4158 26.9705C95.875 26.1668 96.1046 25.2528 96.1046 24.2286C96.1046 23.2043 95.875 22.2903 95.4158 21.4866C94.9725 20.6829 94.3549 20.0605 93.5632 19.6192C92.7714 19.1622 91.8847 18.9337 90.9029 18.9337C89.9212 18.9337 89.0345 19.1622 88.2427 19.6192C87.451 20.0605 86.8255 20.6829 86.3663 21.4866C85.9229 22.2903 85.7013 23.2043 85.7013 24.2286C85.7013 25.2528 85.9229 26.1668 86.3663 26.9705C86.8255 27.7742 87.451 28.4045 88.2427 28.8615C89.0345 29.3027 89.9212 29.5234 90.9029 29.5234Z" fill="black"/>
<path d="M0 4.92449L4.94834 0V29.547L0 34.4714V4.92449Z" fill="black"/>
<path d="M31.6694 0H23.8315L4.45349 16.2508H12.2913L31.6694 0Z" fill="black"/>
<path d="M31.6693 32.5017L23.7199 32.4688L4.45343 16.2509H12.2462L31.6693 32.5017Z" fill="black"/>
</svg>
