<svg width="36" height="36" viewBox="0 0 36 36" fill="none" xmlns="http://www.w3.org/2000/svg">
<path d="M20 18C20 19.1046 19.1046 20 18 20C16.8954 20 16 19.1046 16 18C16 16.8954 16.8954 16 18 16C19.1046 16 20 16.8954 20 18Z" stroke="black" stroke-width="4"/>
<path d="M25.6672 12.8016C27.7984 14.1346 29.4337 15.942 30.4214 18C29.4337 20.058 27.7984 21.8654 25.6672 23.1984C23.4359 24.594 20.7716 25.3993 18 25.4991C15.2284 25.3993 12.5641 24.594 10.3328 23.1984C8.20163 21.8654 6.56626 20.058 5.57864 18C6.56626 15.942 8.20163 14.1346 10.3328 12.8016C12.5641 11.406 15.2284 10.6007 18 10.5009C20.7716 10.6007 23.4359 11.406 25.6672 12.8016Z" stroke="black" stroke-width="3"/>
</svg>
